# Blender 3.4.1
# www.blender.org
o Cube
v 1.000000 1.000000 -1.000000
v 1.000000 -1.000000 -1.000000
v 1.000000 1.000000 1.000000
v 1.000000 -1.000000 1.000000
v -1.000000 1.000000 -1.000000
v -1.000000 -1.000000 -1.000000
v -1.000000 1.000000 1.000000
v -1.000000 -1.000000 1.000000
v -1.000000 -1.000000 0.000000
v 1.000000 1.000000 0.000000
v -1.000000 1.000000 0.000000
v 1.000000 -1.000000 0.000000
v -1.000000 1.000000 -0.500000
v 1.000000 -1.000000 -0.500000
v -1.000000 -1.000000 -0.500000
v 1.000000 1.000000 -0.500000
v -1.000000 -1.000000 0.500000
v 1.000000 1.000000 0.500000
v -1.000000 1.000000 0.500000
v 1.000000 -1.000000 0.500000
v 0.000000 -1.000000 -1.000000
v 0.000000 1.000000 1.000000
v 0.000000 -1.000000 1.000000
v 0.000000 1.000000 -1.000000
v 0.000000 -1.000000 0.000000
v 0.000000 4.000000 0.000000
v 0.000000 1.000000 -0.500000
v 0.000000 -1.000000 -0.500000
v 0.000000 -1.000000 0.500000
v 0.000000 1.000000 0.500000
v 0.500000 -1.000000 1.000000
v 0.500000 1.000000 -1.000000
v 0.500000 1.000000 0.000000
v 0.500000 1.000000 -0.500000
v 0.500000 1.000000 0.500000
v 0.500000 -1.000000 -1.000000
v 0.500000 1.000000 1.000000
v 0.500000 -1.000000 0.000000
v 0.500000 -1.000000 -0.500000
v 0.500000 -1.000000 0.500000
v -0.500000 -1.000000 -1.000000
v -0.500000 1.000000 1.000000
v -0.500000 -1.000000 0.000000
v -0.500000 -1.000000 -0.500000
v -0.500000 -1.000000 0.500000
v -0.500000 -1.000000 1.000000
v -0.500000 1.000000 -1.000000
v -0.500000 1.000000 0.000000
v -0.500000 1.000000 -0.500000
v -0.500000 1.000000 0.500000
v 1.000000 0.000000 -1.000000
v -1.000000 0.000000 1.000000
v 1.000000 0.000000 1.000000
v -1.000000 0.000000 -1.000000
v -1.000000 0.000000 0.000000
v 1.000000 0.000000 -0.500000
v -1.000000 0.000000 -0.500000
v -1.000000 0.000000 0.500000
v 1.000000 0.000000 0.500000
v 0.000000 0.000000 1.000000
v 0.500000 0.000000 1.000000
v 0.500000 0.000000 -1.000000
v -0.500000 0.000000 -1.000000
v -0.500000 0.000000 1.000000
v -1.000000 0.500000 1.000000
v 1.000000 0.500000 -1.000000
v 1.000000 0.500000 1.000000
v -1.000000 0.500000 -1.000000
v 1.000000 0.500000 0.000000
v -1.000000 0.500000 0.000000
v 1.000000 0.500000 -0.500000
v -1.000000 0.500000 -0.500000
v -1.000000 0.500000 0.500000
v 1.000000 0.500000 0.500000
v 0.000000 0.500000 -1.000000
v 0.000000 0.500000 1.000000
v 0.500000 0.500000 1.000000
v 0.500000 0.500000 -1.000000
v -0.500000 0.500000 -1.000000
v -0.500000 0.500000 1.000000
v 1.000000 -0.500000 -1.000000
v 1.000000 -0.500000 1.000000
v -1.000000 -0.500000 -1.000000
v 1.000000 -0.500000 0.000000
v -1.000000 -0.500000 0.000000
v 1.000000 -0.500000 -0.500000
v -1.000000 -0.500000 -0.500000
v -1.000000 -0.500000 0.500000
v 1.000000 -0.500000 0.500000
v 0.000000 -0.500000 -1.000000
v 0.000000 -0.500000 1.000000
v 0.500000 -0.500000 1.000000
v 0.500000 -0.500000 -1.000000
v -0.500000 -0.500000 -1.000000
v -0.500000 -0.500000 1.000000
v -1.000000 -0.500000 1.000000
v 0.000000 0.000000 -4.000000
v 0.000000 1.000000 -0.500000
v 0.000000 1.000000 0.500000
v 0.500000 1.000000 0.000000
v 0.500000 1.000000 -0.500000
v 0.500000 1.000000 0.500000
v -0.500000 1.000000 0.000000
v -0.500000 1.000000 -0.500000
v -0.500000 1.000000 0.500000
v 0.000000 4.000000 -0.050000
v 0.000000 4.000000 0.050000
v 0.050000 4.000000 0.000000
v 0.050000 4.000000 -0.050000
v 0.050000 4.000000 0.050000
v -0.050000 4.000000 0.000000
v -0.050000 4.000000 -0.050000
v -0.050000 4.000000 0.050000
v 0.050000 0.000000 -4.000000
v -0.050000 0.000000 -4.000000
v 0.000000 0.050000 -4.000000
v 0.050000 0.050000 -4.000000
v -0.050000 0.050000 -4.000000
v 0.000000 -0.050000 -4.000000
v 0.050000 -0.050000 -4.000000
v -0.050000 -0.050000 -4.000000
v 4.000000 0.000000 0.000000
v 4.000000 0.000000 -0.050000
v 4.000000 0.000000 0.050000
v 4.000000 0.050000 0.000000
v 4.000000 0.050000 -0.050000
v 4.000000 0.050000 0.050000
v 4.000000 -0.050000 0.000000
v 4.000000 -0.050000 -0.050000
v 4.000000 -0.050000 0.050000
v 0.000000 2.500000 0.500000
v 0.000000 2.500000 -0.500000
v 0.500000 2.500000 0.000000
v 0.500000 2.500000 -0.500000
v -0.500000 2.500000 0.500000
v -0.500000 2.500000 0.000000
v -0.500000 2.500000 -0.500000
v 0.500000 2.500000 0.500000
v 0.000000 3.250000 0.500000
v 0.000000 3.250000 -0.500000
v 0.500000 3.250000 -0.500000
v -0.500000 3.250000 0.000000
v 0.500000 3.250000 0.000000
v -0.500000 3.250000 0.500000
v -0.500000 3.250000 -0.500000
v 0.500000 3.250000 0.500000
v -0.500000 0.000000 -2.507500
v -0.500000 0.500000 -2.507500
v 0.500000 -0.500000 -2.507500
v 0.000000 -0.500000 -2.507500
v 0.500000 0.000000 -2.507500
v 0.500000 0.500000 -2.507500
v 0.000000 0.500000 -2.507500
v -0.500000 -0.500000 -2.507500
v -0.500000 0.500000 -3.253750
v 0.000000 -0.500000 -3.253750
v 0.500000 0.500000 -3.253750
v -0.500000 -0.500000 -3.253750
v -0.500000 0.000000 -3.253750
v 0.500000 -0.500000 -3.253750
v 0.500000 0.000000 -3.253750
v 0.000000 0.500000 -3.253750
v 2.500000 -0.500000 0.500000
v 2.500000 0.000000 -0.500000
v 2.500000 -0.500000 0.000000
v 2.500000 -0.500000 -0.500000
v 2.500000 0.500000 0.500000
v 2.500000 0.500000 0.000000
v 2.500000 0.000000 0.500000
v 2.500000 0.500000 -0.500000
v 3.250000 0.000000 -0.500000
v 3.250000 -0.500000 -0.500000
v 3.250000 0.500000 0.500000
v 3.250000 0.500000 -0.500000
v 3.250000 -0.500000 0.500000
v 3.250000 -0.500000 0.000000
v 3.250000 0.500000 0.000000
v 3.250000 0.000000 0.500000
vn -0.0000 1.0000 -0.0000
vn -0.0000 -0.0000 1.0000
vn -1.0000 -0.0000 -0.0000
vn -0.0000 -1.0000 -0.0000
vn 1.0000 -0.0000 -0.0000
vn -0.0000 -0.0000 -1.0000
vn -0.0000 0.8564 -0.5164
vn 0.8564 -0.0000 -0.5164
vn 0.5145 0.8575 -0.0000
vn 0.5145 -0.8575 -0.0000
vn -0.8564 -0.0000 -0.5164
vn -0.0000 -0.8564 -0.5164
vn 0.5145 -0.0000 -0.8575
vn -0.8575 0.5145 -0.0000
vn -0.0000 0.5145 0.8575
vn -0.0000 0.5145 -0.8575
vn 0.8575 0.5145 -0.0000
vn 0.5145 -0.0000 0.8575
vt 0.625000 0.500000
vt 0.375000 0.500000
vt 0.625000 0.750000
vt 0.375000 0.750000
vt 0.875000 0.500000
vt 0.625000 0.250000
vt 0.125000 0.500000
vt 0.375000 0.250000
vt 0.875000 0.750000
vt 0.625000 1.000000
vt 0.625000 0.000000
vt 0.375000 0.000000
vt 0.125000 0.750000
vt 0.375000 1.000000
vt 0.125000 0.625000
vt 0.375000 0.125000
vt 0.625000 0.625000
vt 0.625000 0.125000
vt 0.875000 0.625000
vt 0.375000 0.625000
vt 0.875000 0.562500
vt 0.625000 0.187500
vt 0.375000 0.562500
vt 0.125000 0.562500
vt 0.375000 0.187500
vt 0.625000 0.562500
vt 0.125000 0.687500
vt 0.375000 0.062500
vt 0.625000 0.687500
vt 0.625000 0.062500
vt 0.875000 0.687500
vt 0.375000 0.687500
vt 0.250000 0.500000
vt 0.375000 0.375000
vt 0.625000 0.875000
vt 0.750000 0.750000
vt 0.250000 0.750000
vt 0.375000 0.875000
vt 0.750000 0.500000
vt 0.625000 0.375000
vt 0.250000 0.625000
vt 0.750000 0.625000
vt 0.750000 0.562500
vt 0.250000 0.562500
vt 0.250000 0.687500
vt 0.750000 0.687500
vt 0.312500 0.750000
vt 0.375000 0.812500
vt 0.687500 0.500000
vt 0.625000 0.437500
vt 0.687500 0.625000
vt 0.687500 0.562500
vt 0.687500 0.687500
vt 0.312500 0.500000
vt 0.375000 0.437500
vt 0.687500 0.750000
vt 0.625000 0.812500
vt 0.312500 0.625000
vt 0.312500 0.562500
vt 0.312500 0.687500
vt 0.187500 0.500000
vt 0.375000 0.312500
vt 0.625000 0.937500
vt 0.812500 0.750000
vt 0.187500 0.625000
vt 0.187500 0.562500
vt 0.187500 0.687500
vt 0.187500 0.750000
vt 0.375000 0.937500
vt 0.625000 0.312500
vt 0.812500 0.500000
vt 0.812500 0.625000
vt 0.812500 0.562500
vt 0.812500 0.687500
vt 0.500000 0.500000
vt 0.500000 0.000000
vt 0.500000 1.000000
vt 0.500000 0.750000
vt 0.500000 0.250000
vt 0.500000 0.125000
vt 0.500000 0.562500
vt 0.500000 0.187500
vt 0.500000 0.062500
vt 0.500000 0.687500
vt 0.500000 0.875000
vt 0.500000 0.812500
vt 0.500000 0.437500
vt 0.500000 0.312500
vt 0.500000 0.937500
vt 0.562500 0.000000
vt 0.562500 1.000000
vt 0.562500 0.500000
vt 0.562500 0.750000
vt 0.562500 0.250000
vt 0.562500 0.625000
vt 0.562500 0.125000
vt 0.562500 0.562500
vt 0.562500 0.187500
vt 0.562500 0.062500
vt 0.562500 0.687500
vt 0.562500 0.375000
vt 0.562500 0.875000
vt 0.562500 0.812500
vt 0.562500 0.437500
vt 0.562500 0.312500
vt 0.562500 0.937500
vt 0.437500 0.500000
vt 0.437500 0.750000
vt 0.437500 0.250000
vt 0.437500 0.625000
vt 0.437500 0.125000
vt 0.437500 0.562500
vt 0.437500 0.187500
vt 0.437500 0.062500
vt 0.437500 0.687500
vt 0.437500 0.375000
vt 0.437500 0.875000
vt 0.437500 0.812500
vt 0.437500 0.437500
vt 0.437500 0.312500
vt 0.437500 0.937500
vt 0.437500 1.000000
vt 0.437500 0.000000
vt 0.500000 0.375000
vt 0.750000 0.562500
vt 0.750000 0.687500
vt 0.687500 0.625000
vt 0.687500 0.562500
vt 0.687500 0.687500
vt 0.812500 0.625000
vt 0.812500 0.562500
vt 0.812500 0.687500
vt 0.750000 0.562500
vt 0.750000 0.687500
vt 0.687500 0.625000
vt 0.687500 0.562500
vt 0.687500 0.687500
vt 0.812500 0.625000
vt 0.812500 0.562500
vt 0.812500 0.687500
vt 0.500000 0.437500
vt 0.500000 0.312500
vt 0.562500 0.375000
vt 0.562500 0.437500
vt 0.562500 0.312500
vt 0.437500 0.375000
vt 0.437500 0.437500
vt 0.437500 0.312500
vt 0.500000 0.625000
vt 0.500000 0.562500
vt 0.500000 0.687500
vt 0.562500 0.625000
vt 0.562500 0.562500
vt 0.562500 0.687500
vt 0.437500 0.625000
vt 0.437500 0.562500
vt 0.437500 0.687500
vt 0.750000 0.687500
vt 0.750000 0.562500
vt 0.687500 0.625000
vt 0.687500 0.562500
vt 0.812500 0.687500
vt 0.812500 0.625000
vt 0.812500 0.562500
vt 0.687500 0.687500
vt 0.750000 0.687500
vt 0.750000 0.562500
vt 0.687500 0.562500
vt 0.812500 0.625000
vt 0.687500 0.625000
vt 0.812500 0.687500
vt 0.812500 0.562500
vt 0.687500 0.687500
vt 0.500000 0.312500
vt 0.562500 0.312500
vt 0.437500 0.437500
vt 0.437500 0.375000
vt 0.500000 0.437500
vt 0.562500 0.437500
vt 0.562500 0.375000
vt 0.437500 0.312500
vt 0.562500 0.312500
vt 0.437500 0.375000
vt 0.562500 0.437500
vt 0.437500 0.312500
vt 0.500000 0.312500
vt 0.437500 0.437500
vt 0.500000 0.437500
vt 0.562500 0.375000
vt 0.437500 0.687500
vt 0.500000 0.562500
vt 0.437500 0.625000
vt 0.437500 0.562500
vt 0.562500 0.687500
vt 0.562500 0.625000
vt 0.500000 0.687500
vt 0.562500 0.562500
vt 0.500000 0.562500
vt 0.437500 0.562500
vt 0.562500 0.687500
vt 0.562500 0.562500
vt 0.437500 0.687500
vt 0.437500 0.625000
vt 0.562500 0.625000
vt 0.500000 0.687500
s 0
f 19/31/1 42/64/1 50/74/1
f 42/63/2 65/91/2 80/106/2
f 13/22/3 68/94/3 72/98/3
f 20/32/4 31/47/4 40/60/4
f 18/29/5 67/93/5 74/100/5
f 32/50/6 66/92/6 78/104/6
f 16/26/5 69/95/5 71/97/5
f 14/23/4 38/58/4 39/59/4
f 19/30/3 70/96/3 73/99/3
f 13/21/1 48/72/1 49/73/1
f 5/5/1 49/73/1 47/71/1
f 2/2/4 39/59/4 36/54/4
f 1/1/5 71/97/5 66/92/5
f 11/18/3 72/98/3 70/96/3
f 7/11/3 73/99/3 65/90/3
f 10/17/5 74/100/5 69/95/5
f 12/20/4 40/60/4 38/58/4
f 11/19/1 50/74/1 48/72/1
f 30/46/1 102/129/1 99/126/1
f 25/41/4 45/67/4 43/65/4
f 21/33/4 44/66/4 41/61/4
f 24/39/1 34/52/1 32/49/1
f 49/73/1 103/130/1 104/131/1
f 28/44/4 43/65/4 44/66/4
f 47/70/6 75/101/6 79/105/6
f 29/45/4 46/68/4 45/67/4
f 37/57/2 76/102/2 77/103/2
f 30/46/1 37/56/1 35/53/1
f 35/53/1 3/3/1 18/29/1
f 3/3/2 77/103/2 67/93/2
f 34/52/1 10/17/1 16/26/1
f 32/49/1 16/26/1 1/1/1
f 33/51/1 18/29/1 10/17/1
f 38/58/4 29/45/4 25/41/4
f 36/54/4 28/44/4 21/33/4
f 39/59/4 25/41/4 28/44/4
f 24/40/6 78/104/6 75/101/6
f 40/60/4 23/37/4 29/45/4
f 45/67/4 8/13/4 17/27/4
f 5/6/6 79/105/6 68/94/6
f 44/66/4 9/15/4 15/24/4
f 41/61/4 15/24/4 6/7/4
f 43/65/4 17/27/4 9/15/4
f 27/43/1 104/131/1 98/125/1
f 47/71/1 27/43/1 24/39/1
f 33/51/1 101/128/1 100/127/1
f 22/35/2 80/106/2 76/102/2
f 50/74/1 22/36/1 30/46/1
f 60/85/2 95/121/2 91/117/2
f 54/79/6 94/120/6 83/109/6
f 162/189/7 117/144/7 116/143/7
f 53/78/2 92/118/2 82/108/2
f 61/86/2 91/117/2 92/118/2
f 161/188/8 120/147/8 114/141/8
f 177/204/9 127/154/9 125/152/9
f 52/76/3 88/114/3 96/123/3
f 55/80/3 87/113/3 85/111/3
f 51/75/5 86/112/5 81/107/5
f 58/83/3 85/111/3 88/114/3
f 176/203/10 130/157/10 175/202/10
f 62/87/6 81/107/6 93/119/6
f 59/84/5 82/108/5 89/115/5
f 57/82/3 83/109/3 87/113/3
f 64/89/2 96/122/2 95/121/2
f 76/102/2 64/89/2 60/85/2
f 68/94/6 63/88/6 54/79/6
f 159/186/11 118/145/11 115/142/11
f 67/93/2 61/86/2 53/78/2
f 77/103/2 60/85/2 61/86/2
f 156/183/12 120/147/12 160/187/12
f 171/198/13 129/156/13 172/199/13
f 65/90/3 58/83/3 52/76/3
f 70/96/3 57/82/3 55/80/3
f 66/92/5 56/81/5 51/75/5
f 73/99/3 55/80/3 58/83/3
f 176/203/10 129/156/10 128/155/10
f 78/104/6 51/75/6 62/87/6
f 74/100/5 53/78/5 59/84/5
f 72/98/3 54/79/3 57/82/3
f 80/106/2 52/77/2 64/89/2
f 95/121/2 8/14/2 46/69/2
f 87/113/3 6/8/3 15/25/3
f 89/115/5 4/4/5 20/32/5
f 93/119/6 2/2/6 36/55/6
f 86/112/5 12/20/5 14/23/5
f 88/114/3 9/16/3 17/28/3
f 81/107/5 14/23/5 2/2/5
f 85/111/3 15/25/3 9/16/3
f 96/123/3 17/28/3 8/12/3
f 84/110/5 20/32/5 12/20/5
f 94/120/6 21/34/6 41/62/6
f 92/118/2 23/38/2 31/48/2
f 82/108/2 31/48/2 4/4/2
f 90/116/6 36/55/6 21/34/6
f 83/109/6 41/62/6 6/8/6
f 91/117/2 46/69/2 23/38/2
f 142/169/14 112/139/14 145/172/14
f 139/166/15 113/140/15 144/171/15
f 140/167/16 109/136/16 141/168/16
f 143/170/17 109/136/17 108/135/17
f 48/72/1 105/132/1 103/130/1
f 50/74/1 99/126/1 105/132/1
f 35/53/1 100/127/1 102/129/1
f 34/52/1 98/125/1 101/128/1
f 26/42/1 110/137/1 108/135/1
f 106/133/1 108/135/1 109/136/1
f 111/138/1 107/134/1 26/42/1
f 112/139/1 26/42/1 106/133/1
f 143/170/17 110/137/17 146/173/17
f 139/166/15 110/137/15 107/134/15
f 140/167/16 112/139/16 106/133/16
f 142/169/14 113/140/14 111/138/14
f 97/124/6 120/147/6 119/146/6
f 115/142/6 119/146/6 121/148/6
f 116/143/6 114/141/6 97/124/6
f 118/145/6 97/124/6 115/142/6
f 156/183/12 121/148/12 119/146/12
f 161/188/8 117/144/8 157/184/8
f 159/186/11 121/148/11 158/185/11
f 162/189/7 118/145/7 155/182/7
f 122/149/5 130/157/5 128/155/5
f 123/150/5 128/155/5 129/156/5
f 125/152/5 124/151/5 122/149/5
f 126/153/5 122/149/5 123/150/5
f 178/205/18 130/157/18 124/151/18
f 171/198/13 126/153/13 123/150/13
f 177/204/9 126/153/9 174/201/9
f 178/205/18 127/154/18 173/200/18
f 105/132/3 136/163/3 103/130/3
f 104/131/6 132/159/6 98/125/6
f 102/129/2 131/158/2 99/126/2
f 100/127/5 138/165/5 102/129/5
f 101/128/5 133/160/5 100/127/5
f 98/125/6 134/161/6 101/128/6
f 99/126/2 135/162/2 105/132/2
f 103/130/3 137/164/3 104/131/3
f 135/162/3 142/169/3 136/163/3
f 137/164/6 140/167/6 132/159/6
f 138/165/2 139/166/2 131/158/2
f 133/160/5 146/173/5 138/165/5
f 134/161/5 143/170/5 133/160/5
f 132/159/6 141/168/6 134/161/6
f 131/158/2 144/171/2 135/162/2
f 136/163/3 145/172/3 137/164/3
f 75/101/1 148/175/1 79/105/1
f 63/88/3 154/181/3 94/120/3
f 62/87/5 152/179/5 78/104/5
f 94/120/4 150/177/4 90/116/4
f 90/116/4 149/176/4 93/119/4
f 79/105/3 147/174/3 63/88/3
f 93/119/5 151/178/5 62/87/5
f 78/104/1 153/180/1 75/101/1
f 153/180/1 155/182/1 148/175/1
f 147/174/3 158/185/3 154/181/3
f 151/178/5 157/184/5 152/179/5
f 154/181/4 156/183/4 150/177/4
f 150/177/4 160/187/4 149/176/4
f 148/175/3 159/186/3 147/174/3
f 149/176/5 161/188/5 151/178/5
f 152/179/1 162/189/1 153/180/1
f 59/84/2 167/194/2 74/100/2
f 69/95/1 170/197/1 71/97/1
f 71/97/6 164/191/6 56/81/6
f 89/115/2 169/196/2 59/84/2
f 86/112/4 165/192/4 84/110/4
f 56/81/6 166/193/6 86/112/6
f 84/110/4 163/190/4 89/115/4
f 74/100/1 168/195/1 69/95/1
f 169/196/2 173/200/2 167/194/2
f 168/195/1 174/201/1 170/197/1
f 170/197/6 171/198/6 164/191/6
f 163/190/2 178/205/2 169/196/2
f 166/193/4 176/203/4 165/192/4
f 164/191/6 172/199/6 166/193/6
f 165/192/4 175/202/4 163/190/4
f 167/194/1 177/204/1 168/195/1
f 19/31/1 7/9/1 42/64/1
f 42/63/2 7/10/2 65/91/2
f 13/22/3 5/6/3 68/94/3
f 20/32/4 4/4/4 31/47/4
f 18/29/5 3/3/5 67/93/5
f 32/50/6 1/1/6 66/92/6
f 16/26/5 10/17/5 69/95/5
f 14/23/4 12/20/4 38/58/4
f 19/30/3 11/18/3 70/96/3
f 13/21/1 11/19/1 48/72/1
f 5/5/1 13/21/1 49/73/1
f 2/2/4 14/23/4 39/59/4
f 1/1/5 16/26/5 71/97/5
f 11/18/3 13/22/3 72/98/3
f 7/11/3 19/30/3 73/99/3
f 10/17/5 18/29/5 74/100/5
f 12/20/4 20/32/4 40/60/4
f 11/19/1 19/31/1 50/74/1
f 30/46/1 35/53/1 102/129/1
f 25/41/4 29/45/4 45/67/4
f 21/33/4 28/44/4 44/66/4
f 24/39/1 27/43/1 34/52/1
f 49/73/1 48/72/1 103/130/1
f 28/44/4 25/41/4 43/65/4
f 47/70/6 24/40/6 75/101/6
f 29/45/4 23/37/4 46/68/4
f 37/57/2 22/35/2 76/102/2
f 30/46/1 22/36/1 37/56/1
f 35/53/1 37/56/1 3/3/1
f 3/3/2 37/57/2 77/103/2
f 34/52/1 33/51/1 10/17/1
f 32/49/1 34/52/1 16/26/1
f 33/51/1 35/53/1 18/29/1
f 38/58/4 40/60/4 29/45/4
f 36/54/4 39/59/4 28/44/4
f 39/59/4 38/58/4 25/41/4
f 24/40/6 32/50/6 78/104/6
f 40/60/4 31/47/4 23/37/4
f 45/67/4 46/68/4 8/13/4
f 5/6/6 47/70/6 79/105/6
f 44/66/4 43/65/4 9/15/4
f 41/61/4 44/66/4 15/24/4
f 43/65/4 45/67/4 17/27/4
f 27/43/1 49/73/1 104/131/1
f 47/71/1 49/73/1 27/43/1
f 33/51/1 34/52/1 101/128/1
f 22/35/2 42/63/2 80/106/2
f 50/74/1 42/64/1 22/36/1
f 60/85/2 64/89/2 95/121/2
f 54/79/6 63/88/6 94/120/6
f 162/189/7 157/184/7 117/144/7
f 53/78/2 61/86/2 92/118/2
f 61/86/2 60/85/2 91/117/2
f 161/188/8 160/187/8 120/147/8
f 177/204/9 173/200/9 127/154/9
f 52/76/3 58/83/3 88/114/3
f 55/80/3 57/82/3 87/113/3
f 51/75/5 56/81/5 86/112/5
f 58/83/3 55/80/3 85/111/3
f 176/203/10 128/155/10 130/157/10
f 62/87/6 51/75/6 81/107/6
f 59/84/5 53/78/5 82/108/5
f 57/82/3 54/79/3 83/109/3
f 64/89/2 52/77/2 96/122/2
f 76/102/2 80/106/2 64/89/2
f 68/94/6 79/105/6 63/88/6
f 159/186/11 155/182/11 118/145/11
f 67/93/2 77/103/2 61/86/2
f 77/103/2 76/102/2 60/85/2
f 156/183/12 119/146/12 120/147/12
f 171/198/13 123/150/13 129/156/13
f 65/90/3 73/99/3 58/83/3
f 70/96/3 72/98/3 57/82/3
f 66/92/5 71/97/5 56/81/5
f 73/99/3 70/96/3 55/80/3
f 176/203/10 172/199/10 129/156/10
f 78/104/6 66/92/6 51/75/6
f 74/100/5 67/93/5 53/78/5
f 72/98/3 68/94/3 54/79/3
f 80/106/2 65/91/2 52/77/2
f 95/121/2 96/122/2 8/14/2
f 87/113/3 83/109/3 6/8/3
f 89/115/5 82/108/5 4/4/5
f 93/119/6 81/107/6 2/2/6
f 86/112/5 84/110/5 12/20/5
f 88/114/3 85/111/3 9/16/3
f 81/107/5 86/112/5 14/23/5
f 85/111/3 87/113/3 15/25/3
f 96/123/3 88/114/3 17/28/3
f 84/110/5 89/115/5 20/32/5
f 94/120/6 90/116/6 21/34/6
f 92/118/2 91/117/2 23/38/2
f 82/108/2 92/118/2 31/48/2
f 90/116/6 93/119/6 36/55/6
f 83/109/6 94/120/6 41/62/6
f 91/117/2 95/121/2 46/69/2
f 142/169/14 111/138/14 112/139/14
f 139/166/15 107/134/15 113/140/15
f 140/167/16 106/133/16 109/136/16
f 143/170/17 141/168/17 109/136/17
f 48/72/1 50/74/1 105/132/1
f 50/74/1 30/46/1 99/126/1
f 35/53/1 33/51/1 100/127/1
f 34/52/1 27/43/1 98/125/1
f 26/42/1 107/134/1 110/137/1
f 106/133/1 26/42/1 108/135/1
f 111/138/1 113/140/1 107/134/1
f 112/139/1 111/138/1 26/42/1
f 143/170/17 108/135/17 110/137/17
f 139/166/15 146/173/15 110/137/15
f 140/167/16 145/172/16 112/139/16
f 142/169/14 144/171/14 113/140/14
f 97/124/6 114/141/6 120/147/6
f 115/142/6 97/124/6 119/146/6
f 116/143/6 117/144/6 114/141/6
f 118/145/6 116/143/6 97/124/6
f 156/183/12 158/185/12 121/148/12
f 161/188/8 114/141/8 117/144/8
f 159/186/11 115/142/11 121/148/11
f 162/189/7 116/143/7 118/145/7
f 122/149/5 124/151/5 130/157/5
f 123/150/5 122/149/5 128/155/5
f 125/152/5 127/154/5 124/151/5
f 126/153/5 125/152/5 122/149/5
f 178/205/18 175/202/18 130/157/18
f 171/198/13 174/201/13 126/153/13
f 177/204/9 125/152/9 126/153/9
f 178/205/18 124/151/18 127/154/18
f 105/132/3 135/162/3 136/163/3
f 104/131/6 137/164/6 132/159/6
f 102/129/2 138/165/2 131/158/2
f 100/127/5 133/160/5 138/165/5
f 101/128/5 134/161/5 133/160/5
f 98/125/6 132/159/6 134/161/6
f 99/126/2 131/158/2 135/162/2
f 103/130/3 136/163/3 137/164/3
f 135/162/3 144/171/3 142/169/3
f 137/164/6 145/172/6 140/167/6
f 138/165/2 146/173/2 139/166/2
f 133/160/5 143/170/5 146/173/5
f 134/161/5 141/168/5 143/170/5
f 132/159/6 140/167/6 141/168/6
f 131/158/2 139/166/2 144/171/2
f 136/163/3 142/169/3 145/172/3
f 75/101/1 153/180/1 148/175/1
f 63/88/3 147/174/3 154/181/3
f 62/87/5 151/178/5 152/179/5
f 94/120/4 154/181/4 150/177/4
f 90/116/4 150/177/4 149/176/4
f 79/105/3 148/175/3 147/174/3
f 93/119/5 149/176/5 151/178/5
f 78/104/1 152/179/1 153/180/1
f 153/180/1 162/189/1 155/182/1
f 147/174/3 159/186/3 158/185/3
f 151/178/5 161/188/5 157/184/5
f 154/181/4 158/185/4 156/183/4
f 150/177/4 156/183/4 160/187/4
f 148/175/3 155/182/3 159/186/3
f 149/176/5 160/187/5 161/188/5
f 152/179/1 157/184/1 162/189/1
f 59/84/2 169/196/2 167/194/2
f 69/95/1 168/195/1 170/197/1
f 71/97/6 170/197/6 164/191/6
f 89/115/2 163/190/2 169/196/2
f 86/112/4 166/193/4 165/192/4
f 56/81/6 164/191/6 166/193/6
f 84/110/4 165/192/4 163/190/4
f 74/100/1 167/194/1 168/195/1
f 169/196/2 178/205/2 173/200/2
f 168/195/1 177/204/1 174/201/1
f 170/197/6 174/201/6 171/198/6
f 163/190/2 175/202/2 178/205/2
f 166/193/4 172/199/4 176/203/4
f 164/191/6 171/198/6 172/199/6
f 165/192/4 176/203/4 175/202/4
f 167/194/1 173/200/1 177/204/1
