# Blender 3.4.1
# www.blender.org
o Cube
v 7.270000 0.110000 -8.960000
v 7.270000 -0.110000 -8.960000
v 7.270000 0.110000 8.960000
v 7.270000 -0.110000 8.960000
v -7.270000 0.110000 -8.960000
v -7.270000 -0.110000 -8.960000
v -7.270000 0.110000 8.960000
v -7.270000 -0.110000 8.960000
v -7.270000 -0.110000 0.000000
v 7.270000 0.110000 0.000000
v -7.270000 0.110000 0.000000
v 7.270000 -0.110000 0.000000
v -7.270000 0.110000 -4.480000
v 7.270000 -0.110000 -4.480000
v -7.270000 -0.110000 -4.480000
v 7.270000 0.110000 -4.480000
v 0.000000 -0.110000 -8.960000
v 0.000000 0.110000 8.960000
v 0.000000 -0.110000 8.960000
v 0.000000 0.110000 -8.960000
v 0.000000 -0.110000 0.000000
v 0.000000 0.110000 0.000000
v 0.000000 0.110000 -4.480000
v 0.000000 -0.110000 -4.480000
v -3.635000 -0.110000 -8.960000
v -3.635000 0.110000 8.960000
v -3.635000 -0.110000 0.000000
v -3.635000 -0.110000 -4.480000
v -3.635000 -0.110000 8.960000
v -3.635000 0.110000 -8.960000
v -3.635000 0.110000 0.000000
v -3.635000 0.110000 -4.480000
v -1.817500 -0.110000 8.960000
v -1.817500 0.110000 -8.960000
v -1.817500 0.110000 0.000000
v -1.817500 0.110000 -4.480000
v -1.817500 -0.110000 -8.960000
v -1.817500 0.110000 8.960000
v -1.817500 -0.110000 0.000000
v -1.817500 -0.110000 -4.480000
v 3.635000 -0.110000 8.960000
v 3.635000 0.110000 -8.960000
v 3.635000 0.110000 0.000000
v 3.635000 0.110000 -4.480000
v 3.635000 -0.110000 -8.960000
v 3.635000 0.110000 8.960000
v 3.635000 -0.110000 0.000000
v 3.635000 -0.110000 -4.480000
v 1.817500 -0.110000 -8.960000
v 1.817500 0.110000 8.960000
v 1.817500 -0.110000 0.000000
v 1.817500 -0.110000 -4.480000
v 1.817500 -0.110000 8.960000
v 1.817500 0.110000 -8.960000
v 1.817500 0.110000 0.000000
v 1.817500 0.110000 -4.480000
v -0.908750 -0.110000 8.960000
v -0.908750 0.110000 -8.960000
v -0.908750 0.110000 0.000000
v -0.908750 0.110000 -4.480000
v -0.908750 -0.110000 -8.960000
v -0.908750 0.110000 8.960000
v -0.908750 -0.110000 0.000000
v -0.908750 -0.110000 -4.480000
v 0.908750 -0.110000 -8.960000
v 0.908750 0.110000 8.960000
v 0.908750 -0.110000 0.000000
v 0.908750 -0.110000 -4.480000
v 0.908750 -0.110000 8.960000
v 0.908750 0.110000 -8.960000
v 0.908750 0.110000 0.000000
v 0.908750 0.110000 -4.480000
v -7.270000 0.110000 -6.720000
v 7.270000 -0.110000 -6.720000
v -7.270000 -0.110000 -6.720000
v 7.270000 0.110000 -6.720000
v 0.000000 -0.110000 -6.720000
v 0.000000 0.110000 -6.720000
v -3.635000 -0.110000 -6.720000
v -3.635000 0.110000 -6.720000
v -1.817500 0.110000 -6.720000
v -1.817500 -0.110000 -6.720000
v 3.635000 0.110000 -6.720000
v 3.635000 -0.110000 -6.720000
v 1.817500 -0.110000 -6.720000
v 1.817500 0.110000 -6.720000
v -0.908750 0.110000 -6.720000
v -0.908750 -0.110000 -6.720000
v 0.908750 -0.110000 -6.720000
v 0.908750 0.110000 -6.720000
v -7.270000 -0.110000 -5.600000
v 7.270000 0.110000 -5.600000
v 0.000000 -0.110000 -5.600000
v 0.000000 0.110000 -5.600000
v -3.635000 -0.110000 -5.600000
v -3.635000 0.110000 -5.600000
v -1.817500 0.110000 -5.600000
v -1.817500 -0.110000 -5.600000
v 3.635000 0.110000 -5.600000
v 3.635000 -0.110000 -5.600000
v 1.817500 -0.110000 -5.600000
v 1.817500 0.110000 -5.600000
v -0.908750 0.110000 -5.600000
v -0.908750 -0.110000 -5.600000
v 0.908750 -0.110000 -5.600000
v 0.908750 0.110000 -5.600000
v -7.270000 0.110000 -5.600000
v 7.270000 -0.110000 -5.600000
v 0.000000 6.539014 -6.720000
v -0.908750 6.539014 -6.720000
v 0.908750 6.539014 -6.720000
v 0.000000 6.539014 -5.600000
v -0.908750 6.539014 -5.600000
v 0.908750 6.539014 -5.600000
v 0.000000 13.771760 -6.720000
v -0.908750 13.771760 -6.720000
v 0.908750 13.771760 -6.720000
v 0.000000 13.771760 -5.600000
v -0.908750 13.771760 -5.600000
v 0.908750 13.771760 -5.600000
v 0.000000 14.801577 -6.720000
v -0.908750 14.801577 -6.720000
v 0.908750 14.801577 -6.720000
v 0.000000 14.801577 -5.600000
v -0.908750 14.801577 -5.600000
v 0.908750 14.801577 -5.600000
v 0.000000 13.771760 4.818620
v -0.908750 13.771760 4.818620
v 0.908750 13.771760 4.818620
v 0.000000 14.801577 4.818620
v -0.908750 14.801577 4.818620
v 0.908750 14.801577 4.818620
v 0.000000 13.771760 6.490069
v -0.908750 13.771760 6.490069
v 0.908750 13.771760 6.490069
v 0.000000 14.801577 6.490069
v -0.908750 14.801577 6.490069
v 0.908750 14.801577 6.490069
v 4.104085 13.771760 4.818620
v 4.104085 14.801577 4.818620
v 4.104085 13.771760 6.490069
v 4.104085 14.801577 6.490069
v 23.229374 0.110000 -8.960000
v 23.229374 -0.110000 -8.960000
v 23.229374 0.110000 8.960000
v 23.229374 -0.110000 8.960000
v 23.229374 0.110000 0.000000
v 23.229374 -0.110000 0.000000
v 23.229374 -0.110000 -4.480000
v 23.229374 0.110000 -4.480000
v 23.229374 -0.110000 -6.720000
v 23.229374 0.110000 -6.720000
v 23.229374 0.110000 -5.600000
v 23.229374 -0.110000 -5.600000
v -22.543152 0.110000 -8.960000
v -22.543152 -0.110000 -8.960000
v -22.543152 0.110000 8.960000
v -22.543152 -0.110000 8.960000
v -22.543152 -0.110000 0.000000
v -22.543152 0.110000 0.000000
v -22.543152 0.110000 -4.480000
v -22.543152 -0.110000 -4.480000
v -22.543152 0.110000 -6.720000
v -22.543152 -0.110000 -6.720000
v -22.543152 -0.110000 -5.600000
v -22.543152 0.110000 -5.600000
v 7.270000 0.110000 24.204050
v 7.270000 -0.110000 24.204050
v -7.270000 0.110000 24.204050
v -7.270000 -0.110000 24.204050
v 0.000000 0.110000 24.204050
v 0.000000 -0.110000 24.204050
v -3.635000 0.110000 24.204050
v -3.635000 -0.110000 24.204050
v -1.817500 -0.110000 24.204050
v -1.817500 0.110000 24.204050
v 3.635000 -0.110000 24.204050
v 3.635000 0.110000 24.204050
v 1.817500 0.110000 24.204050
v 1.817500 -0.110000 24.204050
v -0.908750 -0.110000 24.204050
v -0.908750 0.110000 24.204050
v 0.908750 0.110000 24.204050
v 0.908750 -0.110000 24.204050
v 23.229374 0.110000 24.204050
v 23.229374 -0.110000 24.204050
v -22.543152 0.110000 24.204050
v -22.543152 -0.110000 24.204050
v 7.270000 0.110000 -32.455429
v 7.270000 -0.110000 -32.455429
v -7.270000 0.110000 -32.455429
v -7.270000 -0.110000 -32.455429
v 0.000000 -0.110000 -32.455429
v 0.000000 0.110000 -32.455429
v -3.635000 -0.110000 -32.455429
v -3.635000 0.110000 -32.455429
v -1.817500 0.110000 -32.455429
v -1.817500 -0.110000 -32.455429
v 3.635000 0.110000 -32.455429
v 3.635000 -0.110000 -32.455429
v 1.817500 -0.110000 -32.455429
v 1.817500 0.110000 -32.455429
v -0.908750 0.110000 -32.455429
v -0.908750 -0.110000 -32.455429
v 0.908750 -0.110000 -32.455429
v 0.908750 0.110000 -32.455429
v 23.229374 0.110000 -32.455429
v 23.229374 -0.110000 -32.455429
v -22.543152 0.110000 -32.455429
v -22.543152 -0.110000 -32.455429
vn -0.0000 1.0000 -0.0000
vn -0.0000 -1.0000 -0.0000
vn -1.0000 -0.0000 -0.0000
vn -0.0000 -0.0000 1.0000
vn 1.0000 -0.0000 -0.0000
vn -0.0000 -0.0000 -1.0000
vt 0.625000 0.500000
vt 0.375000 0.500000
vt 0.625000 0.750000
vt 0.375000 0.750000
vt 0.875000 0.500000
vt 0.125000 0.500000
vt 0.875000 0.750000
vt 0.125000 0.750000
vt 0.125000 0.625000
vt 0.625000 0.625000
vt 0.875000 0.625000
vt 0.375000 0.625000
vt 0.875000 0.562500
vt 0.375000 0.562500
vt 0.125000 0.562500
vt 0.625000 0.562500
vt 0.250000 0.500000
vt 0.750000 0.750000
vt 0.250000 0.750000
vt 0.750000 0.500000
vt 0.250000 0.625000
vt 0.750000 0.625000
vt 0.750000 0.562500
vt 0.250000 0.562500
vt 0.187500 0.500000
vt 0.812500 0.750000
vt 0.187500 0.625000
vt 0.187500 0.562500
vt 0.187500 0.750000
vt 0.812500 0.500000
vt 0.812500 0.625000
vt 0.812500 0.562500
vt 0.218750 0.750000
vt 0.781250 0.500000
vt 0.781250 0.625000
vt 0.781250 0.562500
vt 0.218750 0.500000
vt 0.781250 0.750000
vt 0.218750 0.625000
vt 0.218750 0.562500
vt 0.312500 0.750000
vt 0.687500 0.500000
vt 0.687500 0.625000
vt 0.687500 0.562500
vt 0.312500 0.500000
vt 0.687500 0.750000
vt 0.312500 0.625000
vt 0.312500 0.562500
vt 0.281250 0.500000
vt 0.718750 0.750000
vt 0.281250 0.625000
vt 0.281250 0.562500
vt 0.281250 0.750000
vt 0.718750 0.500000
vt 0.718750 0.625000
vt 0.718750 0.562500
vt 0.234375 0.750000
vt 0.765625 0.500000
vt 0.765625 0.625000
vt 0.765625 0.562500
vt 0.234375 0.500000
vt 0.765625 0.750000
vt 0.234375 0.625000
vt 0.234375 0.562500
vt 0.265625 0.500000
vt 0.734375 0.750000
vt 0.265625 0.625000
vt 0.265625 0.562500
vt 0.265625 0.750000
vt 0.734375 0.500000
vt 0.734375 0.625000
vt 0.734375 0.562500
vt 0.875000 0.531250
vt 0.375000 0.531250
vt 0.125000 0.531250
vt 0.625000 0.531250
vt 0.250000 0.531250
vt 0.750000 0.531250
vt 0.187500 0.531250
vt 0.812500 0.531250
vt 0.781250 0.531250
vt 0.218750 0.531250
vt 0.687500 0.531250
vt 0.312500 0.531250
vt 0.281250 0.531250
vt 0.718750 0.531250
vt 0.765625 0.531250
vt 0.234375 0.531250
vt 0.265625 0.531250
vt 0.734375 0.531250
vt 0.125000 0.546875
vt 0.625000 0.546875
vt 0.250000 0.546875
vt 0.750000 0.546875
vt 0.187500 0.546875
vt 0.812500 0.546875
vt 0.781250 0.546875
vt 0.218750 0.546875
vt 0.687500 0.546875
vt 0.312500 0.546875
vt 0.281250 0.546875
vt 0.718750 0.546875
vt 0.765625 0.546875
vt 0.234375 0.546875
vt 0.265625 0.546875
vt 0.734375 0.546875
vt 0.875000 0.546875
vt 0.375000 0.546875
vt 0.750000 0.531250
vt 0.765625 0.531250
vt 0.734375 0.531250
vt 0.750000 0.546875
vt 0.765625 0.546875
vt 0.734375 0.546875
vt 0.750000 0.531250
vt 0.765625 0.531250
vt 0.734375 0.531250
vt 0.750000 0.546875
vt 0.765625 0.546875
vt 0.734375 0.546875
vt 0.750000 0.531250
vt 0.765625 0.531250
vt 0.734375 0.531250
vt 0.750000 0.546875
vt 0.765625 0.546875
vt 0.734375 0.546875
vt 0.750000 0.546875
vt 0.765625 0.546875
vt 0.734375 0.546875
vt 0.750000 0.546875
vt 0.765625 0.546875
vt 0.734375 0.546875
vt 0.750000 0.546875
vt 0.765625 0.546875
vt 0.734375 0.546875
vt 0.750000 0.546875
vt 0.765625 0.546875
vt 0.734375 0.546875
vt 0.734375 0.546875
vt 0.734375 0.546875
vt 0.734375 0.546875
vt 0.734375 0.546875
vt 0.625000 0.500000
vt 0.375000 0.500000
vt 0.625000 0.750000
vt 0.375000 0.750000
vt 0.625000 0.625000
vt 0.375000 0.625000
vt 0.375000 0.562500
vt 0.625000 0.562500
vt 0.375000 0.531250
vt 0.625000 0.531250
vt 0.625000 0.546875
vt 0.375000 0.546875
vt 0.625000 0.250000
vt 0.875000 0.500000
vt 0.125000 0.500000
vt 0.375000 0.250000
vt 0.625000 0.000000
vt 0.875000 0.750000
vt 0.125000 0.750000
vt 0.375000 0.000000
vt 0.375000 0.125000
vt 0.125000 0.625000
vt 0.625000 0.125000
vt 0.875000 0.625000
vt 0.625000 0.187500
vt 0.875000 0.562500
vt 0.375000 0.187500
vt 0.125000 0.562500
vt 0.625000 0.218750
vt 0.875000 0.531250
vt 0.125000 0.531250
vt 0.375000 0.218750
vt 0.375000 0.203125
vt 0.125000 0.546875
vt 0.625000 0.203125
vt 0.875000 0.546875
vt 0.625000 0.750000
vt 0.375000 0.750000
vt 0.625000 1.000000
vt 0.875000 0.750000
vt 0.125000 0.750000
vt 0.375000 1.000000
vt 0.625000 0.875000
vt 0.750000 0.750000
vt 0.375000 0.875000
vt 0.250000 0.750000
vt 0.625000 0.937500
vt 0.812500 0.750000
vt 0.375000 0.937500
vt 0.187500 0.750000
vt 0.375000 0.906250
vt 0.218750 0.750000
vt 0.625000 0.906250
vt 0.781250 0.750000
vt 0.375000 0.812500
vt 0.312500 0.750000
vt 0.625000 0.812500
vt 0.687500 0.750000
vt 0.625000 0.843750
vt 0.718750 0.750000
vt 0.375000 0.843750
vt 0.281250 0.750000
vt 0.375000 0.890625
vt 0.234375 0.750000
vt 0.625000 0.890625
vt 0.765625 0.750000
vt 0.625000 0.859375
vt 0.734375 0.750000
vt 0.375000 0.859375
vt 0.265625 0.750000
vt 0.625000 0.750000
vt 0.375000 0.750000
vt 0.875000 0.750000
vt 0.625000 0.000000
vt 0.625000 1.000000
vt 0.125000 0.750000
vt 0.375000 0.000000
vt 0.375000 1.000000
vt 0.625000 0.500000
vt 0.375000 0.500000
vt 0.625000 0.250000
vt 0.875000 0.500000
vt 0.375000 0.250000
vt 0.125000 0.500000
vt 0.375000 0.375000
vt 0.250000 0.500000
vt 0.625000 0.375000
vt 0.750000 0.500000
vt 0.375000 0.312500
vt 0.187500 0.500000
vt 0.812500 0.500000
vt 0.625000 0.312500
vt 0.625000 0.343750
vt 0.781250 0.500000
vt 0.375000 0.343750
vt 0.218750 0.500000
vt 0.687500 0.500000
vt 0.625000 0.437500
vt 0.375000 0.437500
vt 0.312500 0.500000
vt 0.375000 0.406250
vt 0.281250 0.500000
vt 0.625000 0.406250
vt 0.718750 0.500000
vt 0.625000 0.359375
vt 0.765625 0.500000
vt 0.375000 0.359375
vt 0.234375 0.500000
vt 0.375000 0.390625
vt 0.265625 0.500000
vt 0.625000 0.390625
vt 0.734375 0.500000
vt 0.625000 0.500000
vt 0.375000 0.500000
vt 0.625000 0.250000
vt 0.875000 0.500000
vt 0.125000 0.500000
vt 0.375000 0.250000
s 0
f 11/11/1 26/26/1 31/31/1
f 50/50/1 178/200/1 46/46/1
f 8/8/2 159/164/2 9/9/2
f 12/12/2 41/41/2 47/47/2
f 76/76/1 143/143/1 1/1/1
f 37/37/2 204/250/2 61/61/2
f 92/92/1 152/152/1 76/76/1
f 14/14/2 47/47/2 48/48/2
f 13/13/1 160/166/1 11/11/1
f 13/13/1 31/31/1 32/32/1
f 107/107/1 32/32/1 96/96/1
f 108/108/2 48/48/2 100/100/2
f 10/10/1 150/150/1 16/16/1
f 146/146/2 168/180/2 4/4/2
f 93/93/2 64/64/2 104/104/2
f 94/94/1 72/72/1 106/106/1
f 23/23/1 71/71/1 72/72/1
f 24/24/2 63/63/2 64/64/2
f 156/157/2 192/226/2 6/6/2
f 21/21/2 57/57/2 63/63/2
f 29/29/2 170/183/2 8/8/2
f 22/22/1 66/66/1 71/71/1
f 27/27/2 8/8/2 9/9/2
f 30/30/1 191/224/1 5/5/1
f 28/28/2 9/9/2 15/15/2
f 95/95/2 15/15/2 91/91/2
f 96/96/1 36/36/1 97/97/1
f 32/32/1 35/35/1 36/36/1
f 157/160/1 169/182/1 7/7/1
f 31/31/1 38/38/1 35/35/1
f 35/35/1 62/62/1 59/59/1
f 3/3/1 185/213/1 145/145/1
f 36/36/1 59/59/1 60/60/1
f 97/97/1 60/60/1 103/103/1
f 39/39/2 29/29/2 27/27/2
f 49/49/2 200/242/2 45/45/2
f 40/40/2 27/27/2 28/28/2
f 98/98/2 28/28/2 95/95/2
f 43/43/1 3/3/1 10/10/1
f 69/69/2 172/188/2 19/19/2
f 44/44/1 10/10/1 16/16/1
f 99/99/1 16/16/1 92/92/1
f 100/100/2 52/52/2 101/101/2
f 48/48/2 51/51/2 52/52/2
f 70/70/1 194/230/1 20/20/1
f 47/47/2 53/53/2 51/51/2
f 51/51/2 69/69/2 67/67/2
f 42/42/1 202/246/1 54/54/1
f 52/52/2 67/67/2 68/68/2
f 101/101/2 68/68/2 105/105/2
f 55/55/1 46/46/1 43/43/1
f 41/41/2 180/204/2 53/53/2
f 56/56/1 43/43/1 44/44/1
f 102/102/1 44/44/1 99/99/1
f 103/103/1 23/23/1 94/94/1
f 60/60/1 22/22/1 23/23/1
f 62/62/1 171/186/1 18/18/1
f 59/59/1 18/18/1 22/22/1
f 63/63/2 33/33/2 39/39/2
f 1/1/1 199/239/1 42/42/1
f 64/64/2 39/39/2 40/40/2
f 104/104/2 40/40/2 98/98/2
f 105/105/2 24/24/2 93/93/2
f 68/68/2 21/21/2 24/24/2
f 155/155/3 210/260/3 156/158/3
f 67/67/2 19/19/2 21/21/2
f 71/71/1 50/50/1 55/55/1
f 8/8/2 188/218/2 158/161/2
f 72/72/1 55/55/1 56/56/1
f 106/106/1 56/56/1 102/102/1
f 70/70/1 86/86/1 54/54/1
f 65/65/2 77/77/2 17/17/2
f 61/61/2 82/82/2 37/37/2
f 58/58/1 78/78/1 20/20/1
f 54/54/1 83/83/1 42/42/1
f 49/49/2 89/89/2 65/65/2
f 45/45/2 85/85/2 49/49/2
f 42/42/1 76/76/1 1/1/1
f 37/37/2 79/79/2 25/25/2
f 34/34/1 87/87/1 58/58/1
f 30/30/1 81/81/1 34/34/1
f 25/25/2 75/75/2 6/6/2
f 20/20/1 90/90/1 70/70/1
f 17/17/2 88/88/2 61/61/2
f 16/16/1 153/153/1 92/92/1
f 2/2/2 84/84/2 45/45/2
f 5/5/1 80/80/1 30/30/1
f 75/75/2 156/157/2 6/6/2
f 91/91/2 164/173/2 75/75/2
f 90/90/1 102/102/1 86/86/1
f 89/89/2 93/93/2 77/77/2
f 88/88/2 98/98/2 82/82/2
f 106/106/4 112/112/4 94/94/4
f 86/86/1 99/99/1 83/83/1
f 85/85/2 105/105/2 89/89/2
f 84/84/2 101/101/2 85/85/2
f 83/83/1 92/92/1 76/76/1
f 82/82/2 95/95/2 79/79/2
f 81/81/1 103/103/1 87/87/1
f 80/80/1 97/97/1 81/81/1
f 79/79/2 91/91/2 75/75/2
f 94/94/4 113/113/4 103/103/4
f 77/77/2 104/104/2 88/88/2
f 108/108/2 149/149/2 14/14/2
f 74/74/2 100/100/2 84/84/2
f 73/73/1 96/96/1 80/80/1
f 111/111/5 120/120/5 114/114/5
f 114/114/4 118/118/4 112/112/4
f 87/87/6 109/109/6 78/78/6
f 78/78/6 111/111/6 90/90/6
f 103/103/3 110/110/3 87/87/3
f 90/90/5 114/114/5 106/106/5
f 119/119/3 122/122/3 116/116/3
f 118/118/2 128/128/2 119/119/2
f 110/110/6 115/115/6 109/109/6
f 112/112/4 119/119/4 113/113/4
f 113/113/3 116/116/3 110/110/3
f 109/109/6 117/117/6 111/111/6
f 122/122/1 124/124/1 121/121/1
f 121/121/1 126/126/1 123/123/1
f 115/115/6 123/123/6 117/117/6
f 124/124/1 132/132/1 126/126/1
f 117/117/5 126/126/5 120/120/5
f 116/116/6 121/121/6 115/115/6
f 131/131/1 136/136/1 130/130/1
f 128/128/3 137/137/3 131/131/3
f 126/126/5 129/129/5 120/120/5
f 119/119/3 131/131/3 125/125/3
f 120/120/2 127/127/2 118/118/2
f 125/125/1 130/130/1 124/124/1
f 133/133/4 137/137/4 134/134/4
f 135/135/4 136/136/4 133/133/4
f 127/127/2 134/134/2 128/128/2
f 135/135/4 142/142/4 138/138/4
f 130/130/1 138/138/1 132/132/1
f 129/129/2 133/133/2 127/127/2
f 140/140/5 141/141/5 139/139/5
f 129/129/2 141/141/2 135/135/2
f 132/132/6 139/139/6 129/129/6
f 138/138/1 140/140/1 132/132/1
f 147/147/5 146/146/5 148/148/5
f 150/150/5 148/148/5 149/149/5
f 153/153/5 149/149/5 154/154/5
f 143/143/5 151/151/5 144/144/5
f 152/152/5 154/154/5 151/151/5
f 3/3/1 147/147/1 10/10/1
f 158/162/3 187/216/3 157/159/3
f 14/14/2 148/148/2 12/12/2
f 2/2/2 151/151/2 74/74/2
f 12/12/2 146/146/2 4/4/2
f 74/74/2 154/154/2 108/108/2
f 143/143/1 189/221/1 1/1/1
f 163/171/3 156/158/3 164/174/3
f 157/159/3 159/163/3 158/162/3
f 160/165/3 162/169/3 159/163/3
f 166/177/3 164/174/3 165/175/3
f 161/167/3 165/175/3 162/169/3
f 11/11/1 157/160/1 7/7/1
f 73/73/1 166/178/1 107/107/1
f 107/107/1 161/168/1 13/13/1
f 34/34/1 196/233/1 30/30/1
f 15/15/2 165/176/2 91/91/2
f 9/9/2 162/170/2 15/15/2
f 5/5/1 163/172/1 73/73/1
f 173/189/4 170/184/4 174/191/4
f 169/181/4 188/220/4 170/184/4
f 183/209/4 172/187/4 184/211/4
f 176/195/4 174/191/4 175/193/4
f 182/207/4 175/193/4 181/205/4
f 167/179/4 177/197/4 168/180/4
f 178/199/4 180/203/4 177/197/4
f 171/185/4 181/205/4 172/187/4
f 179/201/4 184/211/4 180/203/4
f 168/180/4 185/213/4 167/179/4
f 57/57/2 175/194/2 33/33/2
f 38/38/1 182/208/1 62/62/1
f 7/7/1 173/190/1 26/26/1
f 66/66/1 179/202/1 50/50/1
f 18/18/1 183/210/1 66/66/1
f 46/46/1 167/179/1 3/3/1
f 145/145/5 186/214/5 146/146/5
f 53/53/2 184/212/2 69/69/2
f 19/19/2 181/206/2 57/57/2
f 4/4/2 177/198/2 41/41/2
f 26/26/1 176/196/1 38/38/1
f 33/33/2 174/192/2 29/29/2
f 199/240/6 190/222/6 200/241/6
f 203/247/6 193/227/6 204/249/6
f 191/223/6 195/231/6 192/225/6
f 196/234/6 198/237/6 195/231/6
f 202/245/6 200/241/6 201/243/6
f 206/253/6 201/243/6 205/251/6
f 197/235/6 204/249/6 198/237/6
f 194/229/6 205/251/6 193/227/6
f 189/221/6 208/256/6 190/222/6
f 192/225/6 209/257/6 191/223/6
f 58/58/1 197/236/1 34/34/1
f 65/65/2 201/244/2 49/49/2
f 17/17/2 205/252/2 65/65/2
f 2/2/2 208/256/2 144/144/2
f 45/45/2 190/222/2 2/2/2
f 144/144/5 207/255/5 143/143/5
f 25/25/2 198/238/2 37/37/2
f 5/5/1 209/258/1 155/156/1
f 54/54/1 206/254/1 70/70/1
f 61/61/2 193/228/2 17/17/2
f 6/6/2 195/232/2 25/25/2
f 20/20/1 203/248/1 58/58/1
f 11/11/1 7/7/1 26/26/1
f 50/50/1 179/202/1 178/200/1
f 8/8/2 158/161/2 159/164/2
f 12/12/2 4/4/2 41/41/2
f 76/76/1 152/152/1 143/143/1
f 37/37/2 198/238/2 204/250/2
f 92/92/1 153/153/1 152/152/1
f 14/14/2 12/12/2 47/47/2
f 13/13/1 161/168/1 160/166/1
f 13/13/1 11/11/1 31/31/1
f 107/107/1 13/13/1 32/32/1
f 108/108/2 14/14/2 48/48/2
f 10/10/1 147/147/1 150/150/1
f 146/146/2 186/214/2 168/180/2
f 93/93/2 24/24/2 64/64/2
f 94/94/1 23/23/1 72/72/1
f 23/23/1 22/22/1 71/71/1
f 24/24/2 21/21/2 63/63/2
f 156/157/2 210/259/2 192/226/2
f 21/21/2 19/19/2 57/57/2
f 29/29/2 174/192/2 170/183/2
f 22/22/1 18/18/1 66/66/1
f 27/27/2 29/29/2 8/8/2
f 30/30/1 196/233/1 191/224/1
f 28/28/2 27/27/2 9/9/2
f 95/95/2 28/28/2 15/15/2
f 96/96/1 32/32/1 36/36/1
f 32/32/1 31/31/1 35/35/1
f 157/160/1 187/215/1 169/182/1
f 31/31/1 26/26/1 38/38/1
f 35/35/1 38/38/1 62/62/1
f 3/3/1 167/179/1 185/213/1
f 36/36/1 35/35/1 59/59/1
f 97/97/1 36/36/1 60/60/1
f 39/39/2 33/33/2 29/29/2
f 49/49/2 201/244/2 200/242/2
f 40/40/2 39/39/2 27/27/2
f 98/98/2 40/40/2 28/28/2
f 43/43/1 46/46/1 3/3/1
f 69/69/2 184/212/2 172/188/2
f 44/44/1 43/43/1 10/10/1
f 99/99/1 44/44/1 16/16/1
f 100/100/2 48/48/2 52/52/2
f 48/48/2 47/47/2 51/51/2
f 70/70/1 206/254/1 194/230/1
f 47/47/2 41/41/2 53/53/2
f 51/51/2 53/53/2 69/69/2
f 42/42/1 199/239/1 202/246/1
f 52/52/2 51/51/2 67/67/2
f 101/101/2 52/52/2 68/68/2
f 55/55/1 50/50/1 46/46/1
f 41/41/2 177/198/2 180/204/2
f 56/56/1 55/55/1 43/43/1
f 102/102/1 56/56/1 44/44/1
f 103/103/1 60/60/1 23/23/1
f 60/60/1 59/59/1 22/22/1
f 62/62/1 182/208/1 171/186/1
f 59/59/1 62/62/1 18/18/1
f 63/63/2 57/57/2 33/33/2
f 1/1/1 189/221/1 199/239/1
f 64/64/2 63/63/2 39/39/2
f 104/104/2 64/64/2 40/40/2
f 105/105/2 68/68/2 24/24/2
f 68/68/2 67/67/2 21/21/2
f 155/155/3 209/257/3 210/260/3
f 67/67/2 69/69/2 19/19/2
f 71/71/1 66/66/1 50/50/1
f 8/8/2 170/183/2 188/218/2
f 72/72/1 71/71/1 55/55/1
f 106/106/1 72/72/1 56/56/1
f 70/70/1 90/90/1 86/86/1
f 65/65/2 89/89/2 77/77/2
f 61/61/2 88/88/2 82/82/2
f 58/58/1 87/87/1 78/78/1
f 54/54/1 86/86/1 83/83/1
f 49/49/2 85/85/2 89/89/2
f 45/45/2 84/84/2 85/85/2
f 42/42/1 83/83/1 76/76/1
f 37/37/2 82/82/2 79/79/2
f 34/34/1 81/81/1 87/87/1
f 30/30/1 80/80/1 81/81/1
f 25/25/2 79/79/2 75/75/2
f 20/20/1 78/78/1 90/90/1
f 17/17/2 77/77/2 88/88/2
f 16/16/1 150/150/1 153/153/1
f 2/2/2 74/74/2 84/84/2
f 5/5/1 73/73/1 80/80/1
f 75/75/2 164/173/2 156/157/2
f 91/91/2 165/176/2 164/173/2
f 90/90/1 106/106/1 102/102/1
f 89/89/2 105/105/2 93/93/2
f 88/88/2 104/104/2 98/98/2
f 106/106/4 114/114/4 112/112/4
f 86/86/1 102/102/1 99/99/1
f 85/85/2 101/101/2 105/105/2
f 84/84/2 100/100/2 101/101/2
f 83/83/1 99/99/1 92/92/1
f 82/82/2 98/98/2 95/95/2
f 81/81/1 97/97/1 103/103/1
f 80/80/1 96/96/1 97/97/1
f 79/79/2 95/95/2 91/91/2
f 94/94/4 112/112/4 113/113/4
f 77/77/2 93/93/2 104/104/2
f 108/108/2 154/154/2 149/149/2
f 74/74/2 108/108/2 100/100/2
f 73/73/1 107/107/1 96/96/1
f 111/111/5 117/117/5 120/120/5
f 114/114/4 120/120/4 118/118/4
f 87/87/6 110/110/6 109/109/6
f 78/78/6 109/109/6 111/111/6
f 103/103/3 113/113/3 110/110/3
f 90/90/5 111/111/5 114/114/5
f 119/119/3 125/125/3 122/122/3
f 118/118/2 127/127/2 128/128/2
f 110/110/6 116/116/6 115/115/6
f 112/112/4 118/118/4 119/119/4
f 113/113/3 119/119/3 116/116/3
f 109/109/6 115/115/6 117/117/6
f 122/122/1 125/125/1 124/124/1
f 121/121/1 124/124/1 126/126/1
f 115/115/6 121/121/6 123/123/6
f 124/124/1 130/130/1 132/132/1
f 117/117/5 123/123/5 126/126/5
f 116/116/6 122/122/6 121/121/6
f 131/131/1 137/137/1 136/136/1
f 128/128/3 134/134/3 137/137/3
f 126/126/5 132/132/5 129/129/5
f 119/119/3 128/128/3 131/131/3
f 120/120/2 129/129/2 127/127/2
f 125/125/1 131/131/1 130/130/1
f 133/133/4 136/136/4 137/137/4
f 135/135/4 138/138/4 136/136/4
f 127/127/2 133/133/2 134/134/2
f 135/135/4 141/141/4 142/142/4
f 130/130/1 136/136/1 138/138/1
f 129/129/2 135/135/2 133/133/2
f 140/140/5 142/142/5 141/141/5
f 129/129/2 139/139/2 141/141/2
f 132/132/6 140/140/6 139/139/6
f 138/138/1 142/142/1 140/140/1
f 147/147/5 145/145/5 146/146/5
f 150/150/5 147/147/5 148/148/5
f 153/153/5 150/150/5 149/149/5
f 143/143/5 152/152/5 151/151/5
f 152/152/5 153/153/5 154/154/5
f 3/3/1 145/145/1 147/147/1
f 158/162/3 188/219/3 187/216/3
f 14/14/2 149/149/2 148/148/2
f 2/2/2 144/144/2 151/151/2
f 12/12/2 148/148/2 146/146/2
f 74/74/2 151/151/2 154/154/2
f 143/143/1 207/255/1 189/221/1
f 163/171/3 155/155/3 156/158/3
f 157/159/3 160/165/3 159/163/3
f 160/165/3 161/167/3 162/169/3
f 166/177/3 163/171/3 164/174/3
f 161/167/3 166/177/3 165/175/3
f 11/11/1 160/166/1 157/160/1
f 73/73/1 163/172/1 166/178/1
f 107/107/1 166/178/1 161/168/1
f 34/34/1 197/236/1 196/233/1
f 15/15/2 162/170/2 165/176/2
f 9/9/2 159/164/2 162/170/2
f 5/5/1 155/156/1 163/172/1
f 173/189/4 169/181/4 170/184/4
f 169/181/4 187/217/4 188/220/4
f 183/209/4 171/185/4 172/187/4
f 176/195/4 173/189/4 174/191/4
f 182/207/4 176/195/4 175/193/4
f 167/179/4 178/199/4 177/197/4
f 178/199/4 179/201/4 180/203/4
f 171/185/4 182/207/4 181/205/4
f 179/201/4 183/209/4 184/211/4
f 168/180/4 186/214/4 185/213/4
f 57/57/2 181/206/2 175/194/2
f 38/38/1 176/196/1 182/208/1
f 7/7/1 169/182/1 173/190/1
f 66/66/1 183/210/1 179/202/1
f 18/18/1 171/186/1 183/210/1
f 46/46/1 178/200/1 167/179/1
f 145/145/5 185/213/5 186/214/5
f 53/53/2 180/204/2 184/212/2
f 19/19/2 172/188/2 181/206/2
f 4/4/2 168/180/2 177/198/2
f 26/26/1 173/190/1 176/196/1
f 33/33/2 175/194/2 174/192/2
f 199/240/6 189/221/6 190/222/6
f 203/247/6 194/229/6 193/227/6
f 191/223/6 196/234/6 195/231/6
f 196/234/6 197/235/6 198/237/6
f 202/245/6 199/240/6 200/241/6
f 206/253/6 202/245/6 201/243/6
f 197/235/6 203/247/6 204/249/6
f 194/229/6 206/253/6 205/251/6
f 189/221/6 207/255/6 208/256/6
f 192/225/6 210/260/6 209/257/6
f 58/58/1 203/248/1 197/236/1
f 65/65/2 205/252/2 201/244/2
f 17/17/2 193/228/2 205/252/2
f 2/2/2 190/222/2 208/256/2
f 45/45/2 200/242/2 190/222/2
f 144/144/5 208/256/5 207/255/5
f 25/25/2 195/232/2 198/238/2
f 5/5/1 191/224/1 209/258/1
f 54/54/1 202/246/1 206/254/1
f 61/61/2 204/250/2 193/228/2
f 6/6/2 192/226/2 195/232/2
f 20/20/1 194/230/1 203/248/1
